<svg width="187" height="177" viewBox="0 0 187 177" fill="none" xmlns="http://www.w3.org/2000/svg">
<rect width="187" height="177" fill="white"/>
<path d="M53 95H145" stroke="black" stroke-width="16" stroke-linecap="round" stroke-linejoin="round"/>
<path d="M38 72H130" stroke="#1C6F82" stroke-width="16" stroke-linecap="round" stroke-linejoin="round"/>
<path d="M57 49H149" stroke="black" stroke-width="16" stroke-linecap="round" stroke-linejoin="round"/>
<path d="M44 26H137" stroke="#0A7DD0" stroke-width="16" stroke-linecap="round" stroke-linejoin="round"/>
<path d="M27.44 149.32C25.7333 149.32 24.88 148.44 24.88 146.68V125.08H17.08C15.6133 125.08 14.88 124.36 14.88 122.92C14.88 121.507 15.6133 120.8 17.08 120.8H37.8C39.2667 120.8 40 121.507 40 122.92C40 124.36 39.2667 125.08 37.8 125.08H30V146.68C30 148.44 29.1467 149.32 27.44 149.32Z" fill="black"/>
<path d="M45.6438 149C43.8304 149 42.9238 148.093 42.9238 146.28V123.52C42.9238 121.707 43.8304 120.8 45.6438 120.8H59.9238C61.3104 120.8 62.0038 121.467 62.0038 122.8C62.0038 124.187 61.3104 124.88 59.9238 124.88H47.8438V132.64H59.0438C60.4304 132.64 61.1238 133.32 61.1238 134.68C61.1238 136.04 60.4304 136.72 59.0438 136.72H47.8438V144.92H59.9238C61.3104 144.92 62.0038 145.6 62.0038 146.96C62.0038 148.32 61.3104 149 59.9238 149H45.6438Z" fill="black"/>
<path d="M69.1909 149.32C67.5909 149.32 66.7909 148.493 66.7909 146.84V123.04C66.7909 122.213 66.9909 121.587 67.3909 121.16C67.8176 120.707 68.3643 120.48 69.0309 120.48C69.6443 120.48 70.0976 120.6 70.3909 120.84C70.7109 121.053 71.0843 121.427 71.5109 121.96L85.7909 140.48V122.92C85.7909 121.293 86.5909 120.48 88.1909 120.48C89.7643 120.48 90.5509 121.293 90.5509 122.92V146.92C90.5509 147.667 90.3643 148.253 89.9909 148.68C89.6176 149.107 89.1109 149.32 88.4709 149.32C87.8576 149.32 87.3643 149.2 86.9909 148.96C86.6443 148.72 86.2576 148.333 85.8309 147.8L71.5509 129.24V146.84C71.5509 148.493 70.7643 149.32 69.1909 149.32Z" fill="black"/>
<path d="M99.4328 149C97.6195 149 96.7128 148.093 96.7128 146.28V123.52C96.7128 121.707 97.6195 120.8 99.4328 120.8H107.193C111.913 120.8 115.553 122.013 118.113 124.44C120.699 126.867 121.993 130.347 121.993 134.88C121.993 139.387 120.699 142.867 118.113 145.32C115.553 147.773 111.913 149 107.193 149H99.4328ZM101.833 144.76H106.873C113.379 144.76 116.633 141.467 116.633 134.88C116.633 128.32 113.379 125.04 106.873 125.04H101.833V144.76Z" fill="black"/>
<path d="M129.902 149C128.088 149 127.182 148.093 127.182 146.28V123.52C127.182 121.707 128.088 120.8 129.902 120.8H144.182C145.568 120.8 146.262 121.467 146.262 122.8C146.262 124.187 145.568 124.88 144.182 124.88H132.102V132.64H143.302C144.688 132.64 145.382 133.32 145.382 134.68C145.382 136.04 144.688 136.72 143.302 136.72H132.102V144.92H144.182C145.568 144.92 146.262 145.6 146.262 146.96C146.262 148.32 145.568 149 144.182 149H129.902Z" fill="black"/>
<path d="M153.609 149.32C151.902 149.32 151.049 148.44 151.049 146.68V123.4C151.049 121.667 151.915 120.8 153.649 120.8H163.289C166.382 120.8 168.769 121.547 170.449 123.04C172.129 124.507 172.969 126.573 172.969 129.24C172.969 131.347 172.422 133.093 171.329 134.48C170.235 135.84 168.662 136.76 166.609 137.24C167.969 137.667 169.089 138.693 169.969 140.32L172.969 145.88C173.422 146.733 173.502 147.52 173.209 148.24C172.942 148.96 172.262 149.32 171.169 149.32C170.449 149.32 169.862 149.173 169.409 148.88C168.955 148.56 168.555 148.08 168.209 147.44L164.169 140C163.689 139.093 163.115 138.493 162.449 138.2C161.809 137.88 160.982 137.72 159.969 137.72H156.169V146.68C156.169 148.44 155.315 149.32 153.609 149.32ZM156.169 133.92H162.409C166.142 133.92 168.009 132.4 168.009 129.36C168.009 126.347 166.142 124.84 162.409 124.84H156.169V133.92Z" fill="black"/>
</svg>
