<svg width="198" height="198" viewBox="0 0 198 198" fill="none" xmlns="http://www.w3.org/2000/svg">
<rect width="198" height="198" fill="#2D2D2D"/>
<path d="M28.517 69V51.5455H35.4034C36.7273 51.5455 37.8551 51.7983 38.7869 52.304C39.7188 52.804 40.429 53.5 40.9176 54.392C41.4119 55.2784 41.6591 56.3011 41.6591 57.4602C41.6591 58.6193 41.4091 59.642 40.9091 60.5284C40.4091 61.4148 39.6847 62.1051 38.7358 62.5994C37.7926 63.0937 36.6506 63.3409 35.3097 63.3409H30.9205V60.3835H34.7131C35.4233 60.3835 36.0085 60.2614 36.4688 60.017C36.9347 59.767 37.2813 59.4233 37.5085 58.9858C37.7415 58.5426 37.858 58.0341 37.858 57.4602C37.858 56.8807 37.7415 56.375 37.5085 55.9432C37.2813 55.5057 36.9347 55.1676 36.4688 54.929C36.0028 54.6847 35.4119 54.5625 34.696 54.5625H32.2074V69H28.517ZM47.3693 69.2472C46.5341 69.2472 45.7898 69.1023 45.1364 68.8125C44.483 68.517 43.9659 68.0824 43.5852 67.5085C43.2102 66.929 43.0227 66.2074 43.0227 65.3438C43.0227 64.6165 43.1563 64.0057 43.4233 63.5114C43.6903 63.017 44.054 62.6193 44.5142 62.3182C44.9744 62.017 45.4972 61.7898 46.0824 61.6364C46.6733 61.483 47.2926 61.375 47.9403 61.3125C48.7017 61.233 49.3153 61.1591 49.7812 61.0909C50.2472 61.017 50.5852 60.9091 50.7955 60.767C51.0057 60.625 51.1108 60.4148 51.1108 60.1364V60.0852C51.1108 59.5455 50.9403 59.1278 50.5994 58.8324C50.2642 58.5369 49.7869 58.3892 49.1676 58.3892C48.5142 58.3892 47.9943 58.5341 47.608 58.8239C47.2216 59.108 46.9659 59.4659 46.8409 59.8977L43.483 59.625C43.6534 58.8295 43.9886 58.142 44.4886 57.5625C44.9886 56.9773 45.6335 56.5284 46.4233 56.2159C47.2188 55.8977 48.1392 55.7386 49.1847 55.7386C49.9119 55.7386 50.608 55.8239 51.2727 55.9943C51.9432 56.1648 52.5369 56.429 53.054 56.7869C53.5767 57.1449 53.9886 57.6051 54.2898 58.1676C54.5909 58.7244 54.7415 59.392 54.7415 60.1705V69H51.2983V67.1847H51.196C50.9858 67.5938 50.7045 67.9545 50.3523 68.267C50 68.5739 49.5767 68.8153 49.0824 68.9915C48.5881 69.1619 48.017 69.2472 47.3693 69.2472ZM48.4091 66.7415C48.9432 66.7415 49.4148 66.6364 49.8239 66.4261C50.233 66.2102 50.554 65.9205 50.7869 65.5568C51.0199 65.1932 51.1364 64.7812 51.1364 64.321V62.9318C51.0227 63.0057 50.8665 63.0739 50.6676 63.1364C50.4744 63.1932 50.2557 63.2472 50.0114 63.2983C49.767 63.3437 49.5227 63.3864 49.2784 63.4261C49.0341 63.4602 48.8125 63.4915 48.6136 63.5199C48.1875 63.5824 47.8153 63.6818 47.4972 63.8182C47.179 63.9545 46.9318 64.1392 46.7557 64.3722C46.5795 64.5994 46.4915 64.8835 46.4915 65.2244C46.4915 65.7188 46.6705 66.0966 47.0284 66.358C47.392 66.6136 47.8523 66.7415 48.4091 66.7415ZM68.4503 59.642L65.1264 59.8466C65.0696 59.5625 64.9474 59.3068 64.7599 59.0795C64.5724 58.8466 64.3253 58.6619 64.0185 58.5256C63.7173 58.3835 63.3565 58.3125 62.9361 58.3125C62.3736 58.3125 61.8991 58.4318 61.5128 58.6705C61.1264 58.9034 60.9332 59.2159 60.9332 59.608C60.9332 59.9205 61.0582 60.1847 61.3082 60.4006C61.5582 60.6165 61.9872 60.7898 62.5952 60.9205L64.9645 61.3977C66.2372 61.6591 67.1861 62.0795 67.8111 62.6591C68.4361 63.2386 68.7486 64 68.7486 64.9432C68.7486 65.8011 68.4957 66.554 67.9901 67.2017C67.4901 67.8494 66.8026 68.3551 65.9276 68.7188C65.0582 69.0767 64.0554 69.2557 62.919 69.2557C61.1861 69.2557 59.8054 68.8949 58.777 68.1733C57.7543 67.446 57.1548 66.4574 56.9787 65.2074L60.5497 65.0199C60.6577 65.5483 60.919 65.9517 61.3338 66.2301C61.7486 66.5028 62.2798 66.6392 62.9276 66.6392C63.5639 66.6392 64.0753 66.517 64.4616 66.2727C64.8537 66.0227 65.0526 65.7017 65.0582 65.3097C65.0526 64.9801 64.9134 64.7102 64.6406 64.5C64.3679 64.2841 63.9474 64.1193 63.3793 64.0057L61.1122 63.554C59.8338 63.2983 58.8821 62.8551 58.2571 62.2244C57.6378 61.5937 57.3281 60.7898 57.3281 59.8125C57.3281 58.9716 57.5554 58.2472 58.0099 57.6392C58.4702 57.0312 59.1151 56.5625 59.9446 56.233C60.7798 55.9034 61.7571 55.7386 62.8764 55.7386C64.5298 55.7386 65.831 56.0881 66.7798 56.7869C67.7344 57.4858 68.2912 58.4375 68.4503 59.642ZM77.9979 55.9091V58.6364H70.1143V55.9091H77.9979ZM71.9041 52.7727H75.5348V64.9773C75.5348 65.3125 75.5859 65.5739 75.6882 65.7614C75.7905 65.9432 75.9325 66.071 76.1143 66.1449C76.3018 66.2187 76.5178 66.2557 76.7621 66.2557C76.9325 66.2557 77.103 66.2415 77.2734 66.2131C77.4439 66.179 77.5746 66.1534 77.6655 66.1364L78.2365 68.8381C78.0547 68.8949 77.799 68.9602 77.4695 69.0341C77.1399 69.1136 76.7393 69.1619 76.2678 69.179C75.3928 69.2131 74.6257 69.0966 73.9666 68.8295C73.3132 68.5625 72.8047 68.1477 72.4411 67.5852C72.0774 67.0227 71.8984 66.3125 71.9041 65.4545V52.7727ZM86.1882 69.2557C84.8416 69.2557 83.6825 68.983 82.7109 68.4375C81.745 67.8864 81.0007 67.108 80.478 66.1023C79.9553 65.0909 79.6939 63.8949 79.6939 62.5142C79.6939 61.1676 79.9553 59.9858 80.478 58.9688C81.0007 57.9517 81.7365 57.1591 82.6854 56.5909C83.6399 56.0227 84.7592 55.7386 86.0433 55.7386C86.907 55.7386 87.7109 55.8778 88.4553 56.1562C89.2053 56.429 89.8587 56.8409 90.4155 57.392C90.978 57.9432 91.4155 58.6364 91.728 59.4716C92.0405 60.3011 92.1967 61.2727 92.1967 62.3864V63.3835H81.1428V61.1335H88.7791C88.7791 60.6108 88.6655 60.1477 88.4382 59.7443C88.2109 59.3409 87.8956 59.0256 87.4922 58.7983C87.0945 58.5653 86.6314 58.4489 86.103 58.4489C85.5518 58.4489 85.0632 58.5767 84.6371 58.8324C84.2166 59.0824 83.8871 59.4205 83.6484 59.8466C83.4098 60.267 83.2876 60.7358 83.282 61.2528V63.392C83.282 64.0398 83.4013 64.5994 83.6399 65.071C83.8842 65.5426 84.228 65.9062 84.6712 66.1619C85.1143 66.4176 85.6399 66.5455 86.2479 66.5455C86.6513 66.5455 87.0206 66.4886 87.3558 66.375C87.6911 66.2614 87.978 66.0909 88.2166 65.8636C88.4553 65.6364 88.6371 65.358 88.7621 65.0284L92.12 65.25C91.9496 66.0568 91.6001 66.7614 91.0717 67.3636C90.549 67.9602 89.8729 68.4261 89.0433 68.7614C88.2195 69.0909 87.2678 69.2557 86.1882 69.2557ZM103.879 51.5455V69H100.189V51.5455H103.879ZM106.847 69V55.9091H110.308V58.2188H110.461C110.734 57.4517 111.188 56.8466 111.825 56.4034C112.461 55.9602 113.222 55.7386 114.109 55.7386C115.006 55.7386 115.771 55.9631 116.401 56.4119C117.032 56.8551 117.452 57.4574 117.663 58.2188H117.799C118.066 57.4688 118.549 56.8693 119.248 56.4205C119.952 55.9659 120.785 55.7386 121.745 55.7386C122.967 55.7386 123.958 56.1278 124.719 56.9062C125.487 57.679 125.87 58.7756 125.87 60.196V69H122.248V60.9119C122.248 60.1847 122.055 59.6392 121.668 59.2756C121.282 58.9119 120.799 58.7301 120.219 58.7301C119.56 58.7301 119.046 58.9403 118.677 59.3608C118.308 59.7756 118.123 60.3239 118.123 61.0057V69H114.603V60.8352C114.603 60.1932 114.418 59.6818 114.049 59.3011C113.685 58.9205 113.205 58.7301 112.609 58.7301C112.205 58.7301 111.842 58.8324 111.518 59.0369C111.2 59.2358 110.947 59.517 110.759 59.8807C110.572 60.2386 110.478 60.6591 110.478 61.142V69H106.847ZM132.471 69.2472C131.636 69.2472 130.891 69.1023 130.238 68.8125C129.585 68.517 129.067 68.0824 128.687 67.5085C128.312 66.929 128.124 66.2074 128.124 65.3438C128.124 64.6165 128.258 64.0057 128.525 63.5114C128.792 63.017 129.156 62.6193 129.616 62.3182C130.076 62.017 130.599 61.7898 131.184 61.6364C131.775 61.483 132.394 61.375 133.042 61.3125C133.803 61.233 134.417 61.1591 134.883 61.0909C135.349 61.017 135.687 60.9091 135.897 60.767C136.107 60.625 136.212 60.4148 136.212 60.1364V60.0852C136.212 59.5455 136.042 59.1278 135.701 58.8324C135.366 58.5369 134.888 58.3892 134.269 58.3892C133.616 58.3892 133.096 58.5341 132.71 58.8239C132.323 59.108 132.067 59.4659 131.942 59.8977L128.585 59.625C128.755 58.8295 129.09 58.142 129.59 57.5625C130.09 56.9773 130.735 56.5284 131.525 56.2159C132.32 55.8977 133.241 55.7386 134.286 55.7386C135.013 55.7386 135.71 55.8239 136.374 55.9943C137.045 56.1648 137.638 56.429 138.156 56.7869C138.678 57.1449 139.09 57.6051 139.391 58.1676C139.692 58.7244 139.843 59.392 139.843 60.1705V69H136.4V67.1847H136.298C136.087 67.5938 135.806 67.9545 135.454 68.267C135.102 68.5739 134.678 68.8153 134.184 68.9915C133.69 69.1619 133.119 69.2472 132.471 69.2472ZM133.511 66.7415C134.045 66.7415 134.516 66.6364 134.925 66.4261C135.335 66.2102 135.656 65.9205 135.888 65.5568C136.121 65.1932 136.238 64.7812 136.238 64.321V62.9318C136.124 63.0057 135.968 63.0739 135.769 63.1364C135.576 63.1932 135.357 63.2472 135.113 63.2983C134.869 63.3437 134.624 63.3864 134.38 63.4261C134.136 63.4602 133.914 63.4915 133.715 63.5199C133.289 63.5824 132.917 63.6818 132.599 63.8182C132.281 63.9545 132.033 64.1392 131.857 64.3722C131.681 64.5994 131.593 64.8835 131.593 65.2244C131.593 65.7188 131.772 66.0966 132.13 66.358C132.494 66.6136 132.954 66.7415 133.511 66.7415ZM148.558 74.1818C147.381 74.1818 146.373 74.0199 145.532 73.696C144.697 73.3778 144.032 72.9432 143.538 72.392C143.043 71.8409 142.722 71.2216 142.575 70.5341L145.933 70.0824C146.035 70.3438 146.197 70.5881 146.418 70.8153C146.64 71.0426 146.933 71.2244 147.296 71.3608C147.665 71.5028 148.114 71.5739 148.643 71.5739C149.433 71.5739 150.083 71.3807 150.594 70.9943C151.112 70.6136 151.37 69.9744 151.37 69.0767V66.6818H151.217C151.058 67.0455 150.819 67.3892 150.501 67.7131C150.183 68.0369 149.773 68.3011 149.273 68.5057C148.773 68.7102 148.177 68.8125 147.484 68.8125C146.501 68.8125 145.606 68.5852 144.799 68.1307C143.998 67.6705 143.359 66.9687 142.881 66.0256C142.41 65.0767 142.174 63.8778 142.174 62.429C142.174 60.946 142.415 59.7074 142.898 58.7131C143.381 57.7187 144.023 56.9744 144.825 56.4801C145.631 55.9858 146.515 55.7386 147.475 55.7386C148.208 55.7386 148.822 55.8636 149.316 56.1136C149.81 56.358 150.208 56.6648 150.509 57.0341C150.816 57.3977 151.052 57.7557 151.217 58.108H151.353V55.9091H154.958V69.1278C154.958 70.2415 154.685 71.1733 154.14 71.9233C153.594 72.6733 152.839 73.2358 151.873 73.6108C150.913 73.9915 149.808 74.1818 148.558 74.1818ZM148.634 66.0852C149.219 66.0852 149.714 65.9403 150.117 65.6506C150.526 65.3551 150.839 64.9347 151.055 64.3892C151.276 63.8381 151.387 63.179 151.387 62.4119C151.387 61.6449 151.279 60.9801 151.063 60.4176C150.847 59.8494 150.535 59.4091 150.126 59.0966C149.717 58.7841 149.219 58.6278 148.634 58.6278C148.038 58.6278 147.535 58.7898 147.126 59.1136C146.717 59.4318 146.407 59.875 146.197 60.4432C145.987 61.0114 145.881 61.6676 145.881 62.4119C145.881 63.1676 145.987 63.821 146.197 64.3722C146.413 64.9176 146.722 65.3409 147.126 65.642C147.535 65.9375 148.038 66.0852 148.634 66.0852ZM163.813 69.2557C162.467 69.2557 161.308 68.983 160.336 68.4375C159.37 67.8864 158.626 67.108 158.103 66.1023C157.58 65.0909 157.319 63.8949 157.319 62.5142C157.319 61.1676 157.58 59.9858 158.103 58.9688C158.626 57.9517 159.362 57.1591 160.31 56.5909C161.265 56.0227 162.384 55.7386 163.668 55.7386C164.532 55.7386 165.336 55.8778 166.08 56.1562C166.83 56.429 167.484 56.8409 168.04 57.392C168.603 57.9432 169.04 58.6364 169.353 59.4716C169.665 60.3011 169.822 61.2727 169.822 62.3864V63.3835H158.768V61.1335H166.404C166.404 60.6108 166.29 60.1477 166.063 59.7443C165.836 59.3409 165.521 59.0256 165.117 58.7983C164.719 58.5653 164.256 58.4489 163.728 58.4489C163.177 58.4489 162.688 58.5767 162.262 58.8324C161.842 59.0824 161.512 59.4205 161.273 59.8466C161.035 60.267 160.913 60.7358 160.907 61.2528V63.392C160.907 64.0398 161.026 64.5994 161.265 65.071C161.509 65.5426 161.853 65.9062 162.296 66.1619C162.739 66.4176 163.265 66.5455 163.873 66.5455C164.276 66.5455 164.646 66.4886 164.981 66.375C165.316 66.2614 165.603 66.0909 165.842 65.8636C166.08 65.6364 166.262 65.358 166.387 65.0284L169.745 65.25C169.575 66.0568 169.225 66.7614 168.697 67.3636C168.174 67.9602 167.498 68.4261 166.668 68.7614C165.844 69.0909 164.893 69.2557 163.813 69.2557Z" fill="white"/>
<rect x="32" y="123" width="72" height="27" rx="6" fill="white"/>
<rect x="137" y="123" width="30" height="27" rx="6" fill="white"/>
<path d="M52.9176 134.656H49.1847C49.1165 134.173 48.9773 133.744 48.767 133.369C48.5568 132.989 48.2869 132.665 47.9574 132.398C47.6278 132.131 47.2472 131.926 46.8153 131.784C46.3892 131.642 45.9261 131.571 45.4261 131.571C44.5227 131.571 43.7358 131.795 43.0653 132.244C42.3949 132.687 41.875 133.335 41.5057 134.188C41.1364 135.034 40.9517 136.062 40.9517 137.273C40.9517 138.517 41.1364 139.562 41.5057 140.409C41.8807 141.256 42.4034 141.895 43.0739 142.327C43.7443 142.759 44.5199 142.974 45.4006 142.974C45.8949 142.974 46.3523 142.909 46.7727 142.778C47.1989 142.648 47.5767 142.457 47.9062 142.207C48.2358 141.952 48.5085 141.642 48.7244 141.278C48.946 140.915 49.0994 140.5 49.1847 140.034L52.9176 140.051C52.821 140.852 52.5795 141.625 52.1932 142.369C51.8125 143.108 51.2983 143.77 50.6506 144.355C50.0085 144.935 49.2415 145.395 48.3494 145.736C47.4631 146.071 46.4602 146.239 45.3409 146.239C43.7841 146.239 42.392 145.886 41.1648 145.182C39.9432 144.477 38.9773 143.457 38.267 142.122C37.5625 140.787 37.2102 139.17 37.2102 137.273C37.2102 135.369 37.5682 133.75 38.2841 132.415C39 131.08 39.9716 130.062 41.1989 129.364C42.4261 128.659 43.8068 128.307 45.3409 128.307C46.3523 128.307 47.2898 128.449 48.1534 128.733C49.0227 129.017 49.7926 129.432 50.4631 129.977C51.1335 130.517 51.679 131.179 52.0994 131.963C52.5256 132.747 52.7983 133.645 52.9176 134.656ZM54.8991 131.588V128.545H69.2344V131.588H63.8906V146H60.2429V131.588H54.8991ZM71.5952 146V128.545H78.4815C79.7997 128.545 80.9247 128.781 81.8565 129.253C82.794 129.719 83.5071 130.381 83.9957 131.239C84.4901 132.091 84.7372 133.094 84.7372 134.247C84.7372 135.406 84.4872 136.403 83.9872 137.239C83.4872 138.068 82.7628 138.705 81.8139 139.148C80.8707 139.591 79.7287 139.812 78.3878 139.812H73.777V136.847H77.7912C78.4957 136.847 79.081 136.75 79.5469 136.557C80.0128 136.364 80.3594 136.074 80.5866 135.688C80.8196 135.301 80.9361 134.821 80.9361 134.247C80.9361 133.668 80.8196 133.179 80.5866 132.781C80.3594 132.384 80.0099 132.082 79.5384 131.878C79.0724 131.668 78.4844 131.562 77.7741 131.562H75.2855V146H71.5952ZM81.0213 138.057L85.3594 146H81.2855L77.0412 138.057H81.0213ZM87.3452 146V128.545H91.0355V142.957H98.5185V146H87.3452Z" fill="black"/>
<path d="M147.67 128.545L151.889 141.807H152.051L156.278 128.545H160.369L154.352 146H149.597L143.571 128.545H147.67Z" fill="black"/>
<path d="M118.631 143.054V130.986H121.682V143.054H118.631ZM114.122 138.545V135.494H126.19V138.545H114.122Z" fill="white"/>
</svg>
